<?xml version="1.0" encoding="UTF-8" standalone="no"?>
<!-- Created with Inkscape (http://www.inkscape.org/) -->

<svg
   width="2048"
   height="2048"
   viewBox="0 0 541.86667 541.86667"
   version="1.1"
   id="svg8"
   inkscape:version="1.2-dev (9ee32be, 2021-06-19)"
   sodipodi:docname="Eduversum_Logo.svg"
   inkscape:export-filename="Eduversum_logo_white.png"
   inkscape:export-xdpi="3"
   inkscape:export-ydpi="3"
   xmlns:inkscape="http://www.inkscape.org/namespaces/inkscape"
   xmlns:sodipodi="http://sodipodi.sourceforge.net/DTD/sodipodi-0.dtd"
   xmlns="http://www.w3.org/2000/svg"
   xmlns:svg="http://www.w3.org/2000/svg"
   xmlns:rdf="http://www.w3.org/1999/02/22-rdf-syntax-ns#"
   xmlns:cc="http://creativecommons.org/ns#"
   xmlns:dc="http://purl.org/dc/elements/1.1/">
  <defs
     id="defs2" />
  <sodipodi:namedview
     id="base"
     pagecolor="#ffffff"
     bordercolor="#666666"
     borderopacity="1.0"
     inkscape:pageopacity="0.0"
     inkscape:pageshadow="2"
     inkscape:zoom="0.175"
     inkscape:cx="485.71429"
     inkscape:cy="980"
     inkscape:document-units="mm"
     inkscape:current-layer="layer2"
     showgrid="false"
     fit-margin-top="0"
     fit-margin-left="0"
     fit-margin-right="0"
     fit-margin-bottom="0"
     units="px"
     inkscape:window-width="1680"
     inkscape:window-height="997"
     inkscape:window-x="0"
     inkscape:window-y="25"
     inkscape:window-maximized="0"
     inkscape:pagecheckerboard="0" />
  <metadata
     id="metadata5">
    <rdf:RDF>
      <cc:Work
         rdf:about="">
        <dc:format>image/svg+xml</dc:format>
        <dc:type
           rdf:resource="http://purl.org/dc/dcmitype/StillImage" />
      </cc:Work>
    </rdf:RDF>
  </metadata>
  <g
     inkscape:groupmode="layer"
     id="layer2"
     inkscape:label="e (blue)"
     transform="matrix(0.99999999,0,0,1.0000038,-98.003258,323.12477)"
     style="display:none">
    <g
       aria-label="e"
       id="text11431-7"
       style="font-size:282.222px;line-height:1.25;display:inline;fill:#d40000;fill-opacity:1;stroke-width:0.264583"
       transform="matrix(3.015305,-0.23995327,0.19327676,2.4882953,-353.1781,-781.48621)">
      <path
         d="m 261.49438,372.98449 c 4.63493,1.3168 10.55405,4.05091 23.25526,3.08433 -4.03114,14.80136 -11.50955,26.28357 -22.43524,34.44665 -10.92569,8.16306 -24.88583,12.23535 -41.88043,12.21686 -38.89218,-0.4689 -68.56702,-26.26943 -69.90015,-72.56577 -0.42554,-24.33869 6.43037,-43.03897 19.0976,-56.46844 12.66723,-13.42948 29.10574,-20.13322 49.31554,-20.11124 43.65413,0.82078 65.09241,37.6033 65.46816,72.81989 -25.14479,15.27442 -68.32698,33.01626 -109.00835,23.73665 13.93101,42.10051 75.48959,38.696 86.08761,2.84107 z m -89.59331,-30.16032 c 21.18138,3.31136 60.87481,0.9562 85.95625,-14.76978 -6.306,-19.63694 -25.85718,-33.7821 -42.14704,-34.03483 -25.68658,3.67002 -45.57751,24.85203 -43.80921,48.80461 z"
         style="font-family:Arial;-inkscape-font-specification:Arial;fill:#4f81bd;fill-opacity:1;stroke-width:0.263077"
         id="path35482"
         sodipodi:nodetypes="ccsccscccccccc" />
    </g>
  </g>
  <g
     inkscape:groupmode="layer"
     id="g1134"
     inkscape:label="e (white)"
     transform="matrix(0.99999999,0,0,1.0000038,-98.003258,323.12477)"
     style="display:inline">
    <g
       aria-label="e"
       id="g1132"
       style="font-size:282.222px;line-height:1.25;display:inline;fill:#ffffff;fill-opacity:1;stroke-width:0.264583"
       transform="matrix(3.015305,-0.23995327,0.19327676,2.4882953,-353.1781,-781.48621)">
      <path
         d="m 261.49438,372.98449 c 4.63493,1.3168 10.55405,4.05091 23.25526,3.08433 -4.03114,14.80136 -11.50955,26.28357 -22.43524,34.44665 -10.92569,8.16306 -24.88583,12.23535 -41.88043,12.21686 -38.89218,-0.4689 -68.56702,-26.26943 -69.90015,-72.56577 -0.42554,-24.33869 6.43037,-43.03897 19.0976,-56.46844 12.66723,-13.42948 29.10574,-20.13322 49.31554,-20.11124 43.65413,0.82078 65.09241,37.6033 65.46816,72.81989 -25.14479,15.27442 -68.32698,33.01626 -109.00835,23.73665 13.93101,42.10051 75.48959,38.696 86.08761,2.84107 z m -89.59331,-30.16032 c 21.18138,3.31136 60.87481,0.9562 85.95625,-14.76978 -6.306,-19.63694 -25.85718,-33.7821 -42.14704,-34.03483 -25.68658,3.67002 -45.57751,24.85203 -43.80921,48.80461 z"
         style="font-family:Arial;-inkscape-font-specification:Arial;fill:#ffffff;fill-opacity:1;stroke-width:0.263077"
         id="path1130"
         sodipodi:nodetypes="ccsccscccccccc" />
    </g>
  </g>
  <g
     inkscape:groupmode="layer"
     id="layer3"
     inkscape:label="Mortarboard">
    <g
       id="g990"
       style="display:inline"
       transform="matrix(0.99999998,0,0,1.0000038,-98.003257,323.12476)">
      <path
         style="fill:#1f497d;fill-opacity:1;fill-rule:evenodd;stroke:none;stroke-width:2.51312px;stroke-linecap:butt;stroke-linejoin:miter;stroke-opacity:1"
         d="m 208.27596,-207.37408 v 109.860539 c 8.31793,28.243853 138.30056,22.940992 160.66282,66.418101 22.36236,-43.477109 152.34005,-38.174248 160.65798,-66.418101 V -207.37408 l -160.65798,53.31536 z"
         id="path4493"
         inkscape:connector-curvature="0"
         sodipodi:nodetypes="ccccccc" />
      <path
         style="opacity:1;fill:#1f497d;fill-opacity:1;fill-rule:nonzero;stroke:none;stroke-width:225.86;stroke-linecap:square;stroke-miterlimit:4;stroke-dasharray:none;stroke-dashoffset:0;stroke-opacity:1"
         d="m 368.9366,-323.12354 270.93333,64.07819 -270.93333,81.9724 -270.933341,-81.9724 z"
         id="path4495"
         inkscape:connector-curvature="0"
         sodipodi:nodetypes="ccccc" />
      <g
         id="g975">
        <path
           style="fill:none;fill-rule:evenodd;stroke:#ffbe00;stroke-width:6;stroke-linecap:round;stroke-linejoin:miter;stroke-miterlimit:4;stroke-dasharray:none;stroke-opacity:1"
           d="m 368.9366,-259.62354 -210.92084,18.50441 v 46.67218"
           id="path4497"
           inkscape:connector-curvature="0"
           sodipodi:nodetypes="ccc" />
        <g
           id="g963">
          <path
             style="fill:none;fill-rule:evenodd;stroke:#ffbe00;stroke-width:6;stroke-linecap:round;stroke-linejoin:miter;stroke-miterlimit:4;stroke-dasharray:none;stroke-opacity:1"
             d="m 157.88886,-156.6398 v 19.27705"
             id="path4501"
             inkscape:connector-curvature="0"
             sodipodi:nodetypes="cc" />
          <path
             style="fill:none;fill-rule:evenodd;stroke:#ffbe00;stroke-width:6;stroke-linecap:round;stroke-linejoin:miter;stroke-miterlimit:4;stroke-dasharray:none;stroke-opacity:1"
             d="m 166.78306,-158.52404 v 19.27705"
             id="path4503"
             inkscape:connector-curvature="0"
             sodipodi:nodetypes="cc" />
          <path
             style="fill:none;fill-rule:evenodd;stroke:#ffbe00;stroke-width:6;stroke-linecap:round;stroke-linejoin:miter;stroke-miterlimit:4;stroke-dasharray:none;stroke-opacity:1"
             d="m 148.99465,-158.52404 v 19.27705"
             id="path4505"
             inkscape:connector-curvature="0"
             sodipodi:nodetypes="cc" />
          <path
             style="fill:none;fill-rule:evenodd;stroke:#ffbe00;stroke-width:6;stroke-linecap:round;stroke-linejoin:miter;stroke-miterlimit:4;stroke-dasharray:none;stroke-opacity:1"
             d="m 175.67725,-164.00307 v 19.27705"
             id="path4507"
             inkscape:connector-curvature="0"
             sodipodi:nodetypes="cc" />
          <path
             style="fill:none;fill-rule:evenodd;stroke:#ffbe00;stroke-width:6;stroke-linecap:round;stroke-linejoin:miter;stroke-miterlimit:4;stroke-dasharray:none;stroke-opacity:1"
             d="m 140.10046,-164.00307 v 19.27705"
             id="path4509"
             inkscape:connector-curvature="0"
             sodipodi:nodetypes="cc" />
          <g
             id="g4615"
             transform="matrix(1.3846538,0,0,1.3880895,-182.7139,-443.53497)">
            <circle
               r="15"
               cy="188.78998"
               cx="245.98801"
               id="path4610"
               style="opacity:1;fill:#ffffff;fill-opacity:1;fill-rule:nonzero;stroke:none;stroke-width:0.350425;stroke-linecap:round;stroke-miterlimit:4;stroke-dasharray:none;stroke-dashoffset:0;stroke-opacity:1;paint-order:normal" />
            <path
               sodipodi:nodetypes="cccccccssccccccscccccscccsccsccccssssccscccccscccccccccccccccssccsscsccccssscccccscscccccsccsssscssccccccccsccscccccccccccccscscccccc"
               inkscape:connector-curvature="0"
               id="path4608"
               d="m 232.70997,181.61024 c 1.50338,-2.88405 5.15158,-5.99341 8.04077,-6.87251 l 0.91959,-0.31167 -0.63303,0.89121 c -0.49215,0.6929 -0.65256,0.78947 -0.72084,0.43403 -0.0795,-0.41387 -0.20536,-0.39707 -1.3283,0.17737 -1.42089,0.72687 -1.99666,1.17661 -4.0385,3.95451 -1.42973,1.94515 -2.05384,3.18843 -1.60053,3.18843 0.12392,0 0.17823,0.83524 0.12069,1.85608 -0.13947,2.47439 0.007,2.92397 1.43095,4.39276 0.66769,0.68872 1.31675,1.50742 1.44236,1.81936 0.19134,0.47517 0.2311,0.41019 0.24518,-0.40082 0.0114,-0.65693 -0.12068,-1.02085 -0.41104,-1.13254 -0.28438,-0.1094 -0.38698,-0.37882 -0.30599,-0.80352 0.10388,-0.54478 0.0242,-0.63238 -0.54034,-0.59452 -0.51855,0.0348 -0.70712,-0.11869 -0.86945,-0.70756 -0.27005,-0.97964 0.51578,-2.47006 1.24629,-2.36374 1.38106,0.201 1.63386,0.25815 1.91657,0.43332 0.16829,0.10426 0.3078,0.51132 0.31004,0.90457 0.003,0.55924 0.06,0.62817 0.26098,0.31645 0.14131,-0.21921 0.25876,-0.70197 0.26098,-1.0728 0.004,-0.68617 2.22635,-3.17845 2.83403,-3.17845 0.16161,0 0.36807,-0.19393 0.4588,-0.43094 0.12222,-0.31929 0.36993,-0.38986 0.95601,-0.27235 0.89216,0.17887 0.88509,0.18872 0.53257,-0.74077 -0.23485,-0.61926 -0.19776,-0.68155 0.40588,-0.68155 0.36541,0 0.73014,0.17179 0.81051,0.38176 0.0803,0.20999 0.30199,0.32183 0.49248,0.24855 0.38763,-0.14912 0.2499,-1.06436 -0.25478,-1.69313 -0.17594,-0.2192 -0.39908,-0.62126 -0.49585,-0.89345 -0.13644,-0.3838 -0.25723,-0.42728 -0.53799,-0.19368 -0.28291,0.23537 -0.39269,0.18381 -0.50215,-0.23578 -0.19428,-0.74482 -0.93474,-0.67224 -1.2981,0.12725 -0.16605,0.36534 -0.40203,0.66426 -0.52441,0.66426 -0.12237,0 -0.2225,0.17935 -0.2225,0.39855 0,0.2192 -0.11926,0.39856 -0.26504,0.39856 -0.14577,0 -0.26505,-0.21523 -0.26505,-0.47827 0,-0.26304 -0.14397,-0.6226 -0.31994,-0.799 -0.78458,-0.78654 2.23174,-1.83885 3.1296,-1.09184 0.46348,0.3856 1.43105,-0.15522 1.43105,-0.79987 0,-0.31439 -0.26431,-0.56291 -0.72888,-0.68536 -0.65863,-0.17358 -0.6782,-0.2108 -0.20301,-0.38622 0.28922,-0.10677 0.74025,-0.13791 1.00231,-0.0692 0.47777,0.12526 1.04593,0.91626 0.94081,1.30986 -0.0309,0.11552 0.0318,0.46801 0.13903,0.78332 0.33562,0.98606 1.50017,1.10936 1.50017,0.15884 0,-0.23769 0.24566,-0.69432 0.54591,-1.0147 l 0.54591,-0.58255 -1.00387,-0.82952 c -0.96196,-0.79491 -0.97645,-0.83031 -0.34712,-0.84821 0.60418,-0.0172 0.61432,-0.037 0.12665,-0.24702 -0.49698,-0.21409 -0.49109,-0.22952 0.0943,-0.24703 1.12698,-0.0337 3.84914,0.80675 5.60989,1.73204 2.32655,1.22263 4.23831,2.95189 5.48097,4.95776 1.93457,3.12276 2.46105,4.89987 2.46314,8.31433 0.003,4.40312 -1.28538,7.53962 -4.36367,10.62558 -3.09599,3.10369 -6.24921,4.38164 -10.78059,4.36922 -1.93646,-0.005 -3.56695,-0.29497 -6.47957,-1.47447 -6.04706,-2.60522 -11.34383,-12.2522 -6.65388,-20.70493 z m 11.9423,20.64042 c 0.56293,-0.14936 1.34471,-0.58008 1.73729,-0.95713 0.39258,-0.37704 0.93811,-0.68554 1.21229,-0.68554 0.60977,0 1.72535,-1.00671 1.72535,-1.55698 0,-0.22085 0.25363,-0.67219 0.56362,-1.00298 0.87442,-0.93309 0.49332,-1.30796 -1.7328,-1.70449 -1.70441,-0.30359 -2.01134,-0.43823 -2.01134,-0.88229 0,-0.76545 -0.77234,-1.49583 -1.58175,-1.49583 -0.43711,0 -0.99422,-0.30319 -1.46793,-0.79886 -0.45193,-0.47289 -0.8607,-0.70137 -1.00179,-0.55993 -0.14108,0.14143 -0.52003,0.0924 -0.92869,-0.12013 -0.47405,-0.24656 -0.79183,-0.27462 -1.01422,-0.0896 -0.2296,0.19103 -0.40093,0.13144 -0.58858,-0.20472 -0.25268,-0.45263 -0.28979,-0.45143 -0.81653,0.0264 -0.3035,0.27535 -0.55182,0.82616 -0.55182,1.22403 0,0.39787 -0.1789,0.87223 -0.39756,1.05416 -0.21866,0.18193 -0.39757,0.53601 -0.39757,0.78686 0,0.56745 1.13953,2.18003 2.45107,3.46858 0.78631,0.77251 1.02956,1.24756 1.16719,2.27935 0.0957,0.71689 0.30461,1.39689 0.46442,1.5111 0.32741,0.234 1.64405,0.11267 3.16935,-0.29205 z m 14.80735,-12.00508 c 0.12175,0 0.32334,0.26903 0.44797,0.59783 0.20451,0.53956 0.24592,0.49748 0.42477,-0.43191 0.49405,-2.56732 -0.592,-7.83217 -1.57899,-7.6544 -0.25663,0.0462 -0.67861,-0.10828 -0.93773,-0.34336 -0.43803,-0.3974 -0.52001,-0.3692 -1.16674,0.40131 -0.66994,0.79816 -0.80627,1.21081 -0.71344,2.15937 0.0237,0.24279 -0.0817,0.51887 -0.23453,0.61351 -0.15681,0.0972 -0.27772,1.11404 -0.27772,2.33578 0,2.06909 0.0367,2.20165 0.83847,3.03095 l 0.83845,0.86722 1.06906,-0.78815 c 0.58798,-0.43348 1.16867,-0.78815 1.29043,-0.78815 z m -18.87886,-0.79711 c 0,-0.14613 -0.17186,-0.2657 -0.38192,-0.2657 -0.21006,0 -0.45563,0.11957 -0.54573,0.2657 -0.0901,0.14614 0.0817,0.2657 0.38192,0.2657 0.30016,0 0.54573,-0.11956 0.54573,-0.2657 z m -2.27221,-1.18995 c -0.28091,-0.21305 -0.68965,-0.39053 -0.90831,-0.39441 -0.21866,-0.004 -0.0398,0.21512 0.39757,0.48666 0.90515,0.56204 1.28335,0.49372 0.51074,-0.0923 z m 17.74171,-5.85407 c 0.0846,-0.22081 0.0853,-0.74436 0.002,-1.16344 -0.15139,-0.75886 0.24447,-1.34473 0.56133,-0.83076 0.30712,0.49807 0.66534,0.27651 0.66534,-0.41148 0,-1.2305 -4.40534,-4.88773 -5.89722,-4.89575 -0.67634,-0.004 -0.57943,0.25497 0.51762,1.38125 1.02485,1.05214 1.669,1.2872 1.669,0.60902 0,-0.5645 0.34319,-0.49386 0.74659,0.15368 0.24541,0.39396 0.26341,0.64959 0.0628,0.89192 -0.30276,0.36572 -0.0964,1.92774 0.286,2.16466 0.12748,0.0789 0.16157,0.42406 0.0757,0.76683 -0.29264,1.16889 0.90718,2.38962 1.31123,1.33407 z m -2.75136,-4.12775 c -0.36226,-0.27904 -0.77792,-0.50618 -0.92369,-0.50479 -0.14578,0.001 -0.0266,0.17322 0.26504,0.38182 0.29155,0.2086 0.64935,0.48977 0.79513,0.6248 0.14577,0.13505 0.3229,0.19153 0.39361,0.12551 0.0707,-0.066 -0.16783,-0.34831 -0.53009,-0.62734 z m -3.30909,-1.31626 c 0.0901,-0.14613 -0.0889,-0.26569 -0.39756,-0.26569 -0.30875,0 -0.48766,0.11956 -0.39757,0.26569 0.0901,0.14614 0.269,0.26571 0.39757,0.26571 0.12857,0 0.30747,-0.11957 0.39756,-0.26571 z m -6.08937,-3.0108 c 0.25788,-0.0674 0.61569,-0.063 0.79513,0.01 0.17944,0.0728 -0.0316,0.1279 -0.46887,0.12248 -0.43732,-0.005 -0.58414,-0.065 -0.32626,-0.13233 z"
               style="fill:#ffbe00;fill-opacity:1;stroke-width:0.265373" />
          </g>
        </g>
      </g>
    </g>
  </g>
  <g
     inkscape:label="Layer 1"
     inkscape:groupmode="layer"
     id="layer1"
     transform="translate(-98.003259,335.42902)">
    <g
       id="g4511"
       transform="matrix(0.99999999,0,0,1.0000038,6.5917281e-7,-12.304253)"
       style="display:inline">
      <g
         aria-label="e"
         transform="matrix(1.1045864,0,0,0.97444973,-424.85717,301.8591)"
         style="font-style:normal;font-weight:normal;font-size:722.261px;line-height:125%;font-family:sans-serif;letter-spacing:-23.4058px;word-spacing:0px;fill:#4f81bd;fill-opacity:1;stroke:none;stroke-width:2.25706px;stroke-linecap:butt;stroke-linejoin:miter;stroke-opacity:1"
         id="g4491">
        <g
           aria-label="e"
           transform="matrix(2.1966209,0,0,2.0331962,2379.7726,116.55447)"
           style="font-style:normal;font-variant:normal;font-weight:normal;font-stretch:normal;font-size:71.6845px;line-height:125%;font-family:serif;-inkscape-font-specification:serif;text-align:center;letter-spacing:0px;word-spacing:0px;text-anchor:middle;fill:#4f81bd;fill-opacity:1;stroke:none;stroke-width:1.79211px;stroke-linecap:butt;stroke-linejoin:miter;stroke-opacity:1"
           id="text4531" />
      </g>
    </g>
  </g>
</svg>
